<svg width="137" height="128" viewBox="0 0 137 128" fill="none" xmlns="http://www.w3.org/2000/svg">
<g filter="url(#filter0_d_140_8)">
<path d="M80.7962 89.8821C80.9177 91.1755 80.1963 92.4094 78.9794 92.8643C75.3901 94.206 71.337 95.1996 66.8201 95.8452C61.434 96.6151 56.4325 97 51.8158 97C36.8665 97 25.1599 93.0958 16.6959 85.2874C8.23198 77.479 4 65.4915 4 49.3248C4 32.8282 8.45182 20.5108 17.3555 12.3724C26.2591 4.12415 38.7901 0 54.9486 0C61.9413 0 69.2063 0.862888 76.7437 2.58866C78.0855 2.89587 79.0237 4.09996 78.9591 5.47492C78.8655 7.46656 78.6664 9.98569 78.3619 13.0323C78.0752 15.829 77.7885 18.088 77.5018 19.8093C77.2756 21.1673 76.0769 22.1054 74.7002 22.1054H66.6552C59.0707 22.1054 53.0799 22.2704 48.6831 22.6003C44.3961 22.8203 41.813 23.3152 40.9336 24.085C39.2848 25.6247 38.0207 28.7591 37.1413 33.4881C36.262 38.1071 35.8223 42.5612 35.8223 46.8503C35.8223 54.3288 36.7566 60.1026 38.6253 64.1718C40.4939 68.131 42.8572 70.7704 45.7152 72.0901C48.4632 73.4099 53.025 74.0697 59.4004 74.0697C63.8143 74.0697 69.4007 73.7345 76.1598 73.0641C77.825 72.8989 79.3144 74.1131 79.4709 75.7791L80.7962 89.8821Z" fill="url(#paint0_linear_140_8)"/>
</g>
<g filter="url(#filter1_d_140_8)">
<path d="M66 32C66 30.3431 67.3431 29 69 29H130C131.657 29 133 30.3431 133 32V45.1579C133 46.8148 131.657 48.1579 130 48.1579H98.0602C96.4034 48.1579 95.0602 49.501 95.0602 51.1579V61.7614C95.0602 63.4183 96.4034 64.7614 98.0602 64.7614H124.027C125.683 64.7614 127.027 66.1046 127.027 67.7614V79.0035C127.027 80.6604 125.683 82.0035 124.027 82.0035H98.0602C96.4034 82.0035 95.0602 83.3467 95.0602 85.0035V97.5228C95.0602 99.1797 96.4034 100.523 98.0602 100.523H129.839C131.495 100.523 132.839 101.866 132.839 103.523V117C132.839 118.657 131.495 120 129.839 120H69C67.3431 120 66 118.657 66 117V32Z" fill="url(#paint1_linear_140_8)"/>
</g>
<g filter="url(#filter2_n_140_8)">
<path d="M65.7644 111C51 111 64.619 102.364 61.7917 99.7794C59.0692 97.1948 51 111 51 96.641C51 83 58.9645 95.4155 61.7917 92.8309C64.7237 90.1505 51 83 66.2356 83C81 83 67.2519 90.1505 70.0792 92.8309C72.9064 95.4155 81 83 81 96.641C81 111 72.9064 97.1948 70.0792 99.7794C67.3567 102.364 81 111 65.7644 111Z" fill="#FF0000"/>
</g>
<defs>
<filter id="filter0_d_140_8" x="0" y="0" width="84.8096" height="105" filterUnits="userSpaceOnUse" color-interpolation-filters="sRGB">
<feFlood flood-opacity="0" result="BackgroundImageFix"/>
<feColorMatrix in="SourceAlpha" type="matrix" values="0 0 0 0 0 0 0 0 0 0 0 0 0 0 0 0 0 0 127 0" result="hardAlpha"/>
<feOffset dy="4"/>
<feGaussianBlur stdDeviation="2"/>
<feComposite in2="hardAlpha" operator="out"/>
<feColorMatrix type="matrix" values="0 0 0 0 0 0 0 0 0 0 0 0 0 0 0 0 0 0 0.25 0"/>
<feBlend mode="normal" in2="BackgroundImageFix" result="effect1_dropShadow_140_8"/>
<feBlend mode="normal" in="SourceGraphic" in2="effect1_dropShadow_140_8" result="shape"/>
</filter>
<filter id="filter1_d_140_8" x="62" y="29" width="75" height="99" filterUnits="userSpaceOnUse" color-interpolation-filters="sRGB">
<feFlood flood-opacity="0" result="BackgroundImageFix"/>
<feColorMatrix in="SourceAlpha" type="matrix" values="0 0 0 0 0 0 0 0 0 0 0 0 0 0 0 0 0 0 127 0" result="hardAlpha"/>
<feOffset dy="4"/>
<feGaussianBlur stdDeviation="2"/>
<feComposite in2="hardAlpha" operator="out"/>
<feColorMatrix type="matrix" values="0 0 0 0 0 0 0 0 0 0 0 0 0 0 0 0 0 0 0.25 0"/>
<feBlend mode="normal" in2="BackgroundImageFix" result="effect1_dropShadow_140_8"/>
<feBlend mode="normal" in="SourceGraphic" in2="effect1_dropShadow_140_8" result="shape"/>
</filter>
<filter id="filter2_n_140_8" x="51" y="83" width="30" height="28" filterUnits="userSpaceOnUse" color-interpolation-filters="sRGB">
<feFlood flood-opacity="0" result="BackgroundImageFix"/>
<feBlend mode="normal" in="SourceGraphic" in2="BackgroundImageFix" result="shape"/>
<feTurbulence type="fractalNoise" baseFrequency="2 2" stitchTiles="stitch" numOctaves="3" result="noise" seed="8878" />
<feColorMatrix in="noise" type="luminanceToAlpha" result="alphaNoise" />
<feComponentTransfer in="alphaNoise" result="coloredNoise1">
<feFuncA type="discrete" tableValues="1 1 1 1 1 1 1 1 1 1 1 1 1 1 1 1 1 1 1 1 1 1 1 1 1 1 1 1 1 1 1 1 1 1 1 1 1 1 1 1 1 1 1 1 1 1 1 1 1 1 1 0 0 0 0 0 0 0 0 0 0 0 0 0 0 0 0 0 0 0 0 0 0 0 0 0 0 0 0 0 0 0 0 0 0 0 0 0 0 0 0 0 0 0 0 0 0 0 0 0 "/>
</feComponentTransfer>
<feComposite operator="in" in2="shape" in="coloredNoise1" result="noise1Clipped" />
<feFlood flood-color="rgba(0, 0, 0, 0.25)" result="color1Flood" />
<feComposite operator="in" in2="noise1Clipped" in="color1Flood" result="color1" />
<feMerge result="effect1_noise_140_8">
<feMergeNode in="shape" />
<feMergeNode in="color1" />
</feMerge>
</filter>
<linearGradient id="paint0_linear_140_8" x1="4" y1="48.5219" x2="81" y2="48.5219" gradientUnits="userSpaceOnUse">
<stop stop-color="#009DFF"/>
<stop offset="1" stop-color="white"/>
</linearGradient>
<linearGradient id="paint1_linear_140_8" x1="66" y1="74.5" x2="133" y2="74.5" gradientUnits="userSpaceOnUse">
<stop stop-color="#009DFF"/>
<stop offset="1" stop-color="white"/>
</linearGradient>
</defs>
</svg>
